<?xml version="1.0" encoding="UTF-8" standalone="no"?>
<!-- Created with Inkscape (http://www.inkscape.org/) -->

<svg
   width="1920"
   height="1080"
   viewBox="0 0 1920 1080"
   version="1.1"
   id="svg5"
   inkscape:version="1.1.2 (b8e25be833, 2022-02-05)"
   sodipodi:docname="LOGO_EINDOPDRACHT.svg"
   xmlns:inkscape="http://www.inkscape.org/namespaces/inkscape"
   xmlns:sodipodi="http://sodipodi.sourceforge.net/DTD/sodipodi-0.dtd"
   xmlns="http://www.w3.org/2000/svg"
   xmlns:svg="http://www.w3.org/2000/svg">
  <sodipodi:namedview
     id="namedview7"
     pagecolor="#505050"
     bordercolor="#eeeeee"
     borderopacity="1"
     inkscape:pageshadow="0"
     inkscape:pageopacity="0"
     inkscape:pagecheckerboard="0"
     inkscape:document-units="px"
     showgrid="false"
     showguides="true"
     inkscape:guide-bbox="true"
     inkscape:zoom="0.42164515"
     inkscape:cx="1502.4482"
     inkscape:cy="298.82947"
     inkscape:window-width="1920"
     inkscape:window-height="1017"
     inkscape:window-x="-1928"
     inkscape:window-y="-6"
     inkscape:window-maximized="1"
     inkscape:current-layer="layer1">
    <sodipodi:guide
       position="659.06832,643.97516"
       orientation="0,-1"
       id="guide21894" />
    <sodipodi:guide
       position="1722.1594,320.06994"
       orientation="0,-1"
       id="guide21896" />
  </sodipodi:namedview>
  <defs
     id="defs2">
    <rect
       x="-104.35315"
       y="-116.21146"
       width="2551.9088"
       height="936.80669"
       id="rect31498" />
  </defs>
  <g
     inkscape:label="Laag 1"
     inkscape:groupmode="layer"
     id="layer1">
    <text
       xml:space="preserve"
       style="font-style:normal;font-weight:normal;font-size:40px;line-height:1.25;font-family:sans-serif;fill:#000000;fill-opacity:1;stroke:none"
       x="62.04969"
       y="57.018635"
       id="text2802"><tspan
         sodipodi:role="line"
         id="tspan2800"></tspan></text>
    <g
       aria-label="T"
       transform="matrix(0.44479306,0,0,0.47879649,321.79333,180.94172)"
       id="text5152"
       style="font-size:987.468px;line-height:1.25;stroke-width:5.14306">
      <path
         d="M 533.33469,102.34449 350.89426,129.77524 V 694.38708 L 209.43762,732.44859 194.67374,129.77524 10.736991,141.20472 -1.5662457,2.9666078 H 548.09857 Z"
         style="font-weight:bold;font-family:Gadugi;-inkscape-font-specification:'Gadugi Bold'"
         id="path29914"
         sodipodi:nodetypes="ccccccccc" />
    </g>
    <g
       aria-label="E"
       transform="matrix(0.47398075,0,0,0.44931225,321.79333,180.94172)"
       id="text5152-1"
       style="font-size:423.467px;line-height:1.25;stroke-width:2.20557">
      <path
         d="M 822.61552,743.88794 H 644.79246 V 447.37832 h 170.99962 l -16.16385,59.25258 -88.04873,-4.8718 v 65.95995 l 83.12087,-4.8718 13.85473,59.0458 h -96.9756 v 67.82089 l 97.18129,-4.8718 z"
         style="font-weight:bold;font-family:Gadugi;-inkscape-font-specification:'Gadugi Bold'"
         id="path29917"
         sodipodi:nodetypes="ccccccccccccc" />
    </g>
    <g
       aria-label="X"
       transform="matrix(0.47398075,0,0,0.44931226,321.79333,180.94172)"
       id="text5152-1-2"
       style="font-size:423.467px;line-height:1.25;stroke-width:2.20557">
      <path
         d="m 1577.0146,744.21906 -74.5751,-17.05129 -55.6906,-79.51077 c -1.9299,-3.58403 -3.9287,-10.20071 -5.9964,-19.85002 h -0.827 c -0.9649,4.54896 -3.2394,11.44133 -6.8235,20.6771 l -51.2792,95.73498 H 1302.216 L 1396.7103,595.96425 1310.28,447.70944 h 81.261 l 42.3881,88.91153 c 3.3083,7.03021 6.272,15.36998 8.8911,25.01929 h 0.8271 c 1.6542,-5.78959 4.7558,-14.40504 9.3047,-25.84637 l 47.1438,-88.08445 h 74.4376 l -88.9116,147.01418 z"
         style="font-weight:bold;font-family:Gadugi;-inkscape-font-specification:'Gadugi Bold'"
         id="path29920"
         sodipodi:nodetypes="ccccccccccccccccccc" />
    </g>
    <g
       aria-label="o"
       transform="matrix(0.44686413,0,0,0.47657741,321.79333,180.94172)"
       id="text5152-1-2-1"
       style="font-size:532.394px;line-height:1.25;stroke-width:2.7729">
      <path
         d="m 2129.5396,700.01995 q -66.5492,0 -104.763,-37.174 -37.9539,-37.43395 -37.9539,-101.38362 0,-66.02933 39.5136,-103.20332 39.5136,-37.43395 106.8427,-37.43395 66.2893,0 103.9832,37.43395 37.694,37.17399 37.694,98.52408 0,66.28929 -38.9937,104.76307 -38.7338,38.47379 -106.3229,38.47379 z m 2.0797,-216.28506 q -29.1153,0 -45.2327,20.01677 -16.1174,20.01676 -16.1174,56.67084 0,76.68761 61.87,76.68761 59.0105,0 59.0105,-78.76727 0,-74.60795 -59.5304,-74.60795 z"
         style="font-weight:bold;font-family:Gadugi;-inkscape-font-specification:'Gadugi Bold'"
         id="path29923" />
    </g>
    <g
       aria-label="p"
       transform="matrix(0.47398075,0,0,0.44931226,321.79333,180.94172)"
       id="text5152-1-2-9"
       style="font-size:454.866px;line-height:1.25;stroke-width:2.36911">
      <path
         d="m 1677.6338,649.47196 h -0.8884 l -9.2365,391.68154 -60.9479,-2.4358 V 448.46916 l 72.4935,-0.63476 -2.3091,34.83855 h 0.8884 c 17.324,-26.50423 41.6812,-39.75635 73.0717,-39.75635 29.4657,0 52.1942,10.14268 68.1855,30.42805 16.1395,20.13729 24.2092,47.60397 24.2092,82.40004 0,37.9055 -9.4023,68.33355 -28.207,91.28414 -18.6566,22.95059 -43.5321,34.42589 -74.6265,34.42589 -27.3926,0 -48.2702,-10.66092 -62.6329,-31.98276 z m -1.9989,-93.28307 v 18.21241 c 0,15.69525 4.1459,28.50316 12.4377,38.42374 8.2919,9.92058 19.1749,14.88087 32.6491,14.88087 15.9914,0 28.3551,-6.14484 37.0911,-18.43451 8.8841,-12.43774 13.3262,-29.98384 13.3262,-52.6383 0,-39.97846 -15.5472,-59.96769 -46.6416,-59.96769 -14.3626,0 -26.134,5.47853 -35.3143,16.43559 -9.0321,10.80899 -13.5482,25.17162 -13.5482,43.08789 z"
         style="font-weight:bold;font-family:Gadugi;-inkscape-font-specification:'Gadugi Bold'"
         id="path34538"
         sodipodi:nodetypes="ccccccccscscscsssscsscs" />
    </g>
    <g
       aria-label="E"
       transform="matrix(0.44479306,0,0,0.47879649,321.79333,180.94172)"
       id="text5152-1-8"
       style="font-size:999.898px;line-height:1.25;stroke-width:5.20783">
      <path
         d="M 1387.6685,698.39013 944.86842,693.54102 V -6.5828841 h 403.76738 l 17.2245,121.5471841 -263.2931,6.85769 v 155.74583 l 211.756,11.42948 17.2245,116.48716 h -228.9805 v 160.13992 h 262.1803 z"
         style="font-weight:bold;font-family:Gadugi;-inkscape-font-specification:'Gadugi Bold'"
         id="path29926"
         sodipodi:nodetypes="ccccccccccccc" />
    </g>
    <g
       aria-label="h"
       transform="matrix(0.44479306,0,0,0.47879649,321.79333,180.94172)"
       id="text5152-0"
       style="font-size:535.464px;line-height:1.25;stroke-width:2.78887">
      <path
         d="M 650.77917,694.84668 583.18409,676.55951 568.42021,542.67869 c -4.30236,-39.01436 -14.29298,-58.82783 -42.87895,-58.82783 -14.64159,0 -26.49431,5.4906 -35.55816,16.47179 -9.06384,10.98119 -13.59576,24.92557 -13.59576,41.83313 l -4.92129,134.40373 -77.69913,18.28717 V 298.47783 h 82.62042 v 168.37832 h 1.04583 c 20.21934,-30.85193 47.67233,-46.27789 82.35896,-46.27789 60.65803,0 90.98704,36.60398 90.98704,109.81195 z"
         style="font-weight:bold;font-family:Gadugi;-inkscape-font-specification:'Gadugi Bold'"
         id="path29929"
         sodipodi:nodetypes="ccssssccccccssc" />
    </g>
    <text
       xml:space="preserve"
       style="font-style:normal;font-weight:normal;font-size:40px;line-height:1.25;font-family:sans-serif;white-space:pre;inline-size:0;fill:#000000;fill-opacity:1;stroke:none"
       x="950.86957"
       y="667.45343"
       id="text17622"><tspan
         id="tspan17620"
         x="950.86957"
         y="667.45343" /></text>
    <path
       style="fill:#000000;stroke:#000000;stroke-width:0.461482px;stroke-linecap:butt;stroke-linejoin:miter;stroke-opacity:1"
       d="m 811.02536,550.87557 199.19514,333.81605 45.9681,-1.0945 67.8577,-116.01474 63.4798,109.44786 50.346,-2.18895 136.8099,-328.34364 -55.8185,1.09448 -108.3534,255.01357 -67.8576,-102.88102 H 1089.023 L 1026.6377,804.79465 865.74933,548.68661 Z"
       id="path29707" />
    <path
       style="fill:#000000;stroke:#000000;stroke-width:0.461482px;stroke-linecap:butt;stroke-linejoin:miter;stroke-opacity:1"
       d="m 1264.1396,873.74684 38.3068,1.09445 38.3068,-88.65275 42.6846,88.65275 40.4957,-1.09445 -78.8024,-168.54977 z"
       id="path29742" />
    <path
       style="fill:#000000;stroke:#000000;stroke-width:0.461482px;stroke-linecap:butt;stroke-linejoin:miter;stroke-opacity:1"
       d="m 1529.0035,620.64457 2.189,250.63565 h 79.8969 l 1.0945,-32.83437 h -56.9129 l 1.0945,-214.51785 z"
       id="path29777" />
    <path
       style="fill:#000000;stroke:#000000;stroke-width:0.461482px;stroke-linecap:butt;stroke-linejoin:miter;stroke-opacity:1"
       d="m 1436.1851,622.49046 2.189,250.63569 h 79.8969 l 1.0945,-32.83438 h -56.9129 l 1.0945,-214.51787 z"
       id="path29777-2" />
    <text
       xml:space="preserve"
       id="text31496"
       style="fill:black;fill-opacity:1;line-height:1.25;stroke:none;font-family:sans-serif;font-style:normal;font-weight:normal;font-size:40px;white-space:pre;shape-inside:url(#rect31498)" />
  </g>
</svg>
